<svg height="472pt" viewBox="-4 0 472 472.00021" width="472pt" xmlns="http://www.w3.org/2000/svg"><path d="m456 112h-380.160156l-10.320313-90.640625c-1.289062-12.179687-11.589843-21.4101562-23.839843-21.359375h-33.679688c-4.417969 0-8 3.582031-8 8s3.582031 8 8 8h33.679688c4.089843-.003906 7.527343 3.058594 8 7.121094l44.800781 395.519531c1.289062 12.183594 11.589843 21.410156 23.839843 21.359375h17.679688c.320312 0 .480469-.160156.800781-.160156 3.785157 18.644531 20.175781 32.039062 39.199219 32.039062s35.414062-13.394531 39.199219-32.039062c.320312 0 .480469.160156.800781.160156h64c.320312 0 .480469-.160156.800781-.160156 4.03125 20.167968 22.695313 33.992187 43.164063 31.964844 20.464844-2.023438 36.058594-19.238282 36.058594-39.804688s-15.59375-37.78125-36.058594-39.804688c-20.46875-2.027343-39.132813 11.796876-43.164063 31.964844-.320312 0-.480469-.160156-.800781-.160156h-64c-.320312 0-.480469.160156-.800781.160156-3.785157-18.640625-20.175781-32.039062-39.199219-32.039062s-35.414062 13.398437-39.199219 32.039062c-.320312 0-.480469-.160156-.800781-.160156h-17.679688c-4.089843.003906-7.527343-3.058594-8-7.121094l-7.28125-64.878906h276.882813c3.574219-.011719 6.710937-2.394531 7.679687-5.839844l57.757813-202.160156h-365.917969l-1.839844-16h378.398438c4.417969 0 8-3.582031 8-8s-3.582031-8-8-8zm-104 208h16c4.417969 0 8 3.582031 8 8s-3.582031 8-8 8h-16c-4.417969 0-8-3.582031-8-8s3.582031-8 8-8zm-232 0h200c4.417969 0 8 3.582031 8 8s-3.582031 8-8 8h-200c-4.417969 0-8-3.582031-8-8s3.582031-8 8-8zm0 0"/><path d="m216 51.3125-44.6875 44.6875h89.375zm0 0"/><path d="m388.6875 96-76.6875-76.6875-52.6875 52.6875 24 24zm0 0"/></svg>