<svg height="467pt" viewBox="0 -9 467.52 467" width="467pt" xmlns="http://www.w3.org/2000/svg"><path d="m216 408.261719c0 22.089843-17.910156 40-40 40s-40-17.910157-40-40c0-22.09375 17.910156-40 40-40s40 17.90625 40 40zm0 0"/><path d="m408 408.261719c0 22.089843-17.910156 40-40 40s-40-17.910157-40-40c0-22.09375 17.910156-40 40-40s40 17.90625 40 40zm0 0"/><path d="m84.640625 128.261719-28.878906-121.839844c-.851563-3.601563-4.0625-6.148437-7.761719-6.160156h-40c-4.417969 0-8 3.578125-8 8 0 4.417969 3.582031 8 8 8h33.679688l68.230468 288h314.089844c.628906.054687 1.246094.1875 1.839844.398437l11.441406-48.398437h-322.320312l-3.761719-16h327.921875c.617187.066406 1.234375.171875 1.839844.316406l11.4375-48.316406h-352.558594l-3.839844-16h358.320312c.59375.058593 1.183594.164062 1.757813.316406l11.441406-48.316406zm0 0"/></svg>