<svg height="448pt" viewBox="0 -40 448 448" width="448pt" xmlns="http://www.w3.org/2000/svg"><path d="m272 232v128c0 4.417969 3.582031 8 8 8h144c4.417969 0 8-3.582031 8-8v-128c0-4.417969-3.582031-8-8-8h-144c-4.417969 0-8 3.582031-8 8zm80 16c12.578125 0 23.992188 7.367188 29.167969 18.835938 5.175781 11.464843 3.152343 24.898437-5.167969 34.332031v34.832031c0 4.417969-3.582031 8-8 8h-32c-4.417969 0-8-3.582031-8-8v-34.832031c-8.320312-9.433594-10.34375-22.867188-5.167969-34.332031 5.175781-11.46875 16.589844-18.835938 29.167969-18.835938zm0 0"/><path d="m0 48h448v48h-448zm0 0"/><path d="m448 8c0-4.417969-3.582031-8-8-8h-432c-4.417969 0-8 3.582031-8 8v24h448zm0 0"/><path d="m352 144c-30.910156.039062-55.960938 25.089844-56 56v8h112v-8c-.039062-30.910156-25.089844-55.960938-56-56zm0 0"/><path d="m344 297.839844v30.160156h16v-30.160156c.003906-2.308594 1.003906-4.507813 2.742188-6.023438 3.378906-2.992187 5.296874-7.304687 5.257812-11.816406 0-8.835938-7.164062-16-16-16s-16 7.164062-16 16c-.039062 4.511719 1.878906 8.824219 5.257812 11.816406 1.738282 1.515625 2.738282 3.714844 2.742188 6.023438zm0 0"/><path d="m96 224h-32v16h32c4.417969 0 8-3.582031 8-8s-3.582031-8-8-8zm0 0"/><path d="m96 200c0-4.417969-3.582031-8-8-8h-24v16h24c4.417969 0 8-3.582031 8-8zm0 0"/><path d="m0 112v184c0 4.417969 3.582031 8 8 8h248v-72c0-13.253906 10.746094-24 24-24v-8c0-39.765625 32.234375-72 72-72s72 32.234375 72 72v8c13.253906 0 24 10.746094 24 24v-120zm96 144h-8v8c0 4.417969-3.582031 8-8 8s-8-3.582031-8-8v-8h-8v8c0 4.417969-3.582031 8-8 8s-8-3.582031-8-8v-8h-8c-4.417969 0-8-3.582031-8-8s3.582031-8 8-8h8v-48h-8c-4.417969 0-8-3.582031-8-8s3.582031-8 8-8h8v-8c0-4.417969 3.582031-8 8-8s8 3.582031 8 8v8h8v-8c0-4.417969 3.582031-8 8-8s8 3.582031 8 8v8c13.253906 0 24 10.746094 24 24-.023438 4.132812-1.125 8.191406-3.199219 11.769531 9.046875 5.683594 13.234375 16.671875 10.261719 26.9375-2.96875 10.261719-12.378906 17.316407-23.0625 17.292969zm0 0"/></svg>