<svg height="448pt" viewBox="0 0 448 448" width="448pt" xmlns="http://www.w3.org/2000/svg"><path d="m312 96c0-13.253906-10.746094-24-24-24h-40v48h40c13.253906 0 24-10.746094 24-24zm0 0"/><path d="m288 136h-40v48h40c13.253906 0 24-10.746094 24-24s-10.746094-24-24-24zm0 0"/><path d="m272 0c-70.691406 0-128 57.308594-128 128s57.308594 128 128 128 128-57.308594 128-128c-.082031-70.65625-57.34375-127.9179688-128-128zm109.464844 78.761719c3.4375 7.648437 6.066406 15.632812 7.839844 23.832031.929687 4.316406-1.8125 8.566406-6.128907 9.503906-.558593.117188-1.125.179688-1.695312.183594-3.765625-.003906-7.023438-2.632812-7.816407-6.3125-1.53125-7.097656-3.808593-14.011719-6.792968-20.632812-1.816406-4.03125-.019532-8.769532 4.007812-10.582032 4.03125-1.816406 8.769532-.023437 10.585938 4.007813zm-40.777344-39.5625c1.410156-1.589844 3.398438-2.550781 5.519531-2.675781 2.125-.121094 4.207031.605468 5.792969 2.019531 6.226562 5.589843 11.855469 11.8125 16.800781 18.5625 2.613281 3.5625 1.84375 8.570312-1.722656 11.183593-3.5625 2.613282-8.570313 1.84375-11.183594-1.722656-4.296875-5.859375-9.191406-11.253906-14.605469-16.101562-3.265624-2.953125-3.53125-7.984375-.601562-11.265625zm-42.03125-20.3125c1.351562-4.203125 5.859375-6.519531 10.0625-5.167969 7.980469 2.574219 15.671875 5.976562 22.945312 10.144531 3.832032 2.210938 5.144532 7.105469 2.9375 10.9375-2.210937 3.828125-7.105468 5.144531-10.9375 2.933594-6.292968-3.625-12.953124-6.574219-19.863281-8.796875-4.1875-1.363281-6.488281-5.855469-5.144531-10.050781zm-39.542969-10.199219c8.324219-.882812 16.722657-.910156 25.054688-.078125 4.394531.441406 7.601562 4.363281 7.160156 8.757813-.441406 4.398437-4.363281 7.601562-8.761719 7.160156-7.226562-.714844-14.511718-.691406-21.734375.066406-2.882812.382812-5.75-.824219-7.484375-3.160156-1.734375-2.335938-2.066406-5.429688-.863281-8.078125 1.203125-2.648438 3.75-4.4375 6.652344-4.667969zm-47.410156 15.535156c7.246094-4.214844 14.914063-7.65625 22.882813-10.269531 2.726562-.933594 5.742187-.328125 7.898437 1.582031 2.15625 1.914063 3.117187 4.839844 2.515625 7.65625-.605469 2.820313-2.675781 5.09375-5.425781 5.960938-6.898438 2.265625-13.542969 5.25-19.820313 8.902344-3.820312 2.222656-8.71875.929687-10.941406-2.890626-2.222656-3.820312-.929688-8.71875 2.890625-10.941406zm-36.960937 33.472656c4.914062-6.785156 10.519531-13.039062 16.730468-18.664062 2.117188-1.925781 5.101563-2.578125 7.828125-1.703125 2.726563.875 4.777344 3.136719 5.378907 5.9375.601562 2.796875-.335938 5.707031-2.464844 7.621094-5.386719 4.878906-10.25 10.304687-14.511719 16.191406-2.589844 3.582031-7.59375 4.382813-11.171875 1.789063-3.578125-2.589844-4.378906-7.59375-1.789062-11.171876zm-20.207032 45.601563c1.722656-8.210937 4.300782-16.21875 7.695313-23.890625 1.136719-2.648438 3.609375-4.484375 6.476562-4.800781 2.863281-.320313 5.679688.929687 7.367188 3.269531 1.6875 2.335938 1.984375 5.402344.78125 8.019531-2.933594 6.640625-5.164063 13.570313-6.65625 20.671875-.773438 3.707032-4.039063 6.359375-7.824219 6.363282-.550781-.003907-1.097656-.058594-1.640625-.167969-4.3125-.902344-7.085937-5.125-6.199219-9.441407zm.113282 49.847656c-1.746094-8.183593-2.632813-16.527343-2.648438-24.898437 0-4.417969 3.582031-8 8-8s8 3.582031 8 8c.011719 7.261718.78125 14.5 2.296875 21.601562.617187 2.804688-.316406 5.722656-2.445313 7.648438-2.125 1.929687-5.125 2.566406-7.851562 1.675781-2.730469-.890625-4.773438-3.175781-5.351562-5.988281zm26.847656 48.800781c-2.558594.003907-4.964844-1.214843-6.472656-3.28125-4.941407-6.769531-9.15625-14.039062-12.582032-21.6875-1.691406-4.007812.128906-8.632812 4.101563-10.410156 3.96875-1.777344 8.632812-.058594 10.496093 3.875 2.972657 6.625 6.628907 12.917969 10.914063 18.78125 1.777344 2.433594 2.035156 5.65625.671875 8.34375-1.363281 2.683594-4.117188 4.375-7.128906 4.378906zm41.550781 27.109376c-2.203125 3.832031-7.097656 5.152343-10.925781 2.945312-7.253906-4.191406-14.054688-9.125-20.289063-14.71875-2.179687-1.898438-3.164062-4.820312-2.585937-7.648438.582031-2.828124 2.644531-5.125 5.394531-6.003906 2.75-.882812 5.761719-.214844 7.878906 1.746094 5.40625 4.867188 11.304688 9.15625 17.601563 12.800781 3.816406 2.207031 5.125 7.089844 2.925781 10.914063zm37.378906 18.320312c-.269531 0-.535156-.015625-.800781-.046875-8.34375-.855469-16.570312-2.585937-24.554688-5.160156-3.964843-1.527344-6.046874-5.886719-4.738281-9.929688 1.308594-4.042969 5.550781-6.359375 9.660157-5.269531 6.914062 2.226562 14.039062 3.726562 21.265624 4.472656 4.417969.21875 7.820313 3.980469 7.597657 8.398438-.21875 4.417968-3.980469 7.820312-8.398438 7.601562zm48.75-5.277344c-7.972656 2.589844-16.191406 4.339844-24.527343 5.214844-.289063 0-.570313.039062-.839844.039062-4.234375-.039062-7.707032-3.371093-7.917969-7.597656-.210937-4.230468 2.90625-7.890625 7.117187-8.355468 7.21875-.761719 14.335938-2.273438 21.238282-4.519532 2.753906-1.023437 5.847656-.457031 8.058594 1.476563 2.210937 1.933593 3.183593 4.921875 2.535156 7.785156-.644532 2.867187-2.8125 5.144531-5.640625 5.9375zm-21.175781-42.097656v8c0 4.417969-3.582031 8-8 8s-8-3.582031-8-8v-8h-16v8c0 4.417969-3.582031 8-8 8s-8-3.582031-8-8v-8h-16c-4.417969 0-8-3.582031-8-8s3.582031-8 8-8h8v-112h-8c-4.417969 0-8-3.582031-8-8s3.582031-8 8-8h16v-8c0-4.417969 3.582031-8 8-8s8 3.582031 8 8v8h16v-8c0-4.417969 3.582031-8 8-8s8 3.582031 8 8v8c17.253906-.050781 32.582031 11 37.988281 27.386719 5.40625 16.382812-.339843 34.386719-14.234375 44.613281 13.894532 10.226562 19.640625 28.230469 14.234375 44.613281-5.40625 16.386719-20.734375 27.4375-37.988281 27.386719zm64.34375 17.136719c-6.222656 5.613281-13.011719 10.558593-20.265625 14.757812-1.210937.710938-2.59375 1.082031-4 1.082031-3.613281-.007812-6.773437-2.4375-7.710937-5.929687s.585937-7.175781 3.710937-8.992187c6.296875-3.640626 12.199219-7.929688 17.601563-12.796876 3.28125-2.960937 8.339843-2.703124 11.300781.578126 2.960937 3.28125 2.699219 8.339843-.582031 11.300781zm29.320312-40.335938c-3.417968 7.652344-7.625 14.925781-12.550781 21.703125-1.65625 2.375-4.464843 3.667969-7.347656 3.386719-2.878906-.285156-5.382813-2.101563-6.542969-4.753906-1.160156-2.652344-.800781-5.722657.945313-8.03125 4.273437-5.878907 7.921875-12.1875 10.878906-18.824219 1.800781-4.039062 6.53125-5.851562 10.570313-4.050781 4.035156 1.800781 5.847656 6.535156 4.046874 10.570312zm7.742188-23.871093c-.78125 3.695312-4.042969 6.339843-7.820312 6.34375-.558594-.003907-1.113282-.058594-1.65625-.167969-4.324219-.914063-7.089844-5.15625-6.175782-9.480469 1.492188-7.113281 2.246094-14.359375 2.246094-21.625-.015625-4.460938 3.539062-8.117188 8-8.230469 2.097656-.054687 4.125.742188 5.632812 2.203125 1.503907 1.460938 2.355469 3.464844 2.367188 5.5625v.464844c0 8.375-.867188 16.730469-2.59375 24.929688zm0 0"/><path d="m0 288h32v160h-32zm0 0"/><path d="m48 416h20.238281c8.152344.011719 16.285157.75 24.304688 2.207031l159.121093 28.882813c1.859376.308594 3.773438-.027344 5.414063-.953125l181.960937-105.066407c4.980469-2.835937 8.039063-8.140624 8-13.871093.007813-5.726563-3.050781-11.019531-8.011718-13.878907-4.964844-2.859374-11.074219-2.847656-16.027344.03125l-97.398438 56.25c-5.914062 8.738282-15.769531 13.980469-26.320312 14h-.082031c-2.597657-.003906-5.1875-.316406-7.710938-.9375l-100.648437-14.753906c-2.894532-.335937-5.375-2.222656-6.476563-4.917968-1.101562-2.699219-.652343-5.78125 1.179688-8.050782 1.828125-2.265625 4.746093-3.359375 7.617187-2.851562l101.039063 14.796875c.308593.042969.613281.105469.914062.183593 6.957031 1.664063 14.191407-1.335937 17.933594-7.429687h.042969v-.066406c.703125-1.175781 1.242187-2.441407 1.597656-3.765625 1.113281-4.105469.542969-8.484375-1.578125-12.167969-2.121094-3.6875-5.625-6.375-9.734375-7.472656l-75-13.296875c-12.34375-2.769532-24.242188-7.261719-35.335938-13.34375-17.617187-9.113282-37.203124-13.757813-57.039062-13.527344-19.492188-.246094-38.757812 4.230469-56.144531 13.046875-9.933594 5.199219-20.726563 8.550781-31.855469 9.890625zm0 0"/></svg>