<svg height="448pt" viewBox="0 -40 448 448" width="448pt" xmlns="http://www.w3.org/2000/svg"><path d="m336 144c-61.855469 0-112 50.144531-112 112s50.144531 112 112 112 112-50.144531 112-112c-.066406-61.828125-50.171875-111.933594-112-112zm0 216c-57.4375 0-104-46.5625-104-104s46.5625-104 104-104 104 46.5625 104 104c-.066406 57.410156-46.589844 103.933594-104 104zm0 0"/><path d="m336 168c-48.601562 0-88 39.398438-88 88s39.398438 88 88 88 88-39.398438 88-88c-.058594-48.578125-39.421875-87.941406-88-88zm40 72c-.019531 5.921875-2.246094 11.625-6.238281 16 3.992187 4.375 6.21875 10.078125 6.238281 16v16c-.042969 10.132812-6.445312 19.148438-16 22.527344v17.472656h-16v-16h-8v16h-16v-16h-24v-16h16v-80h-16v-16h24v-16h16v16h8v-16h16v17.472656c9.554688 3.378906 15.957031 12.394532 16 22.527344zm0 0"/><path d="m400 145.320312v-145.320312h-400v240h209.113281c.335938-2.6875.71875-5.367188 1.222657-8h-194.335938c-4.417969 0-8-3.582031-8-8v-208c0-4.417969 3.582031-8 8-8h368c4.417969 0 8 3.582031 8 8v125.078125c2.71875 1.320313 5.390625 2.730469 8 4.242187zm0 0"/><path d="m352 264h-24v32h24c4.417969 0 8-3.582031 8-8v-16c0-4.417969-3.582031-8-8-8zm0 0"/><path d="m352 216h-24v32h24c4.417969 0 8-3.582031 8-8v-16c0-4.417969-3.582031-8-8-8zm0 0"/><path d="m376 24h-20.6875l20.6875 20.6875zm0 0"/><path d="m44.6875 24h-20.6875v20.6875zm0 0"/><path d="m336 128c13.59375.011719 27.097656 2.203125 40 6.488281v-67.199219l-43.3125-43.289062h-265.375l-43.3125 43.3125v105.375l43.3125 43.3125h147.199219c17.308593-52.445312 66.261719-87.902344 121.488281-88zm-128 80h-16v-17.023438c-17.351562-4.898437-29.167969-20.953124-28.6875-38.976562h16c-.285156 9.179688 4.625 17.734375 12.6875 22.128906v-47.152344c-17.351562-4.898437-29.167969-20.953124-28.6875-38.976562-.480469-18.023438 11.335938-34.078125 28.6875-38.976562v-17.023438h16v17.023438c17.351562 4.898437 29.167969 20.953124 28.6875 38.976562h-16c.285156-9.179688-4.621094-17.738281-12.6875-22.128906v47.152344c17.085938 5.289062 28.738281 21.089843 28.738281 38.976562s-11.652343 33.6875-28.738281 38.976562zm0 0"/><path d="m208 129.871094v44.257812c7.878906-4.585937 12.726562-13.011718 12.726562-22.128906s-4.847656-17.542969-12.726562-22.128906zm0 0"/><path d="m179.3125 88c-.285156 9.179688 4.625 17.734375 12.6875 22.128906v-44.257812c-8.066406 4.390625-12.972656 12.949218-12.6875 22.128906zm0 0"/><path d="m24 195.3125v20.6875h20.6875zm0 0"/></svg>