<svg height="616pt" viewBox="-19 -28 616.00067 616" width="616pt" xmlns="http://www.w3.org/2000/svg"><path d="m489.667969 419.109375h-371.109375l-58.710938-401.179687c-.71875-4.90625-4.921875-8.546876-9.882812-8.546876h-39.972656c-5.519532 0-9.992188 4.476563-9.992188 9.996094 0 5.519532 4.472656 9.992188 9.992188 9.992188h31.34375l58.707031 401.179687c.71875 4.902344 4.925781 8.539063 9.882812 8.542969h379.742188c5.519531 0 9.996093-4.472656 9.996093-9.992188 0-5.519531-4.476562-9.992187-9.996093-9.992187zm0 0"/><path d="m249.832031 519.039062c0 22.078126-17.898437 39.972657-39.972656 39.972657s-39.972656-17.894531-39.972656-39.972657c0-22.074218 17.898437-39.972656 39.972656-39.972656s39.972656 17.898438 39.972656 39.972656zm0 0"/><path d="m459.691406 519.039062c0 22.078126-17.898437 39.972657-39.976562 39.972657-22.074219 0-39.972656-17.894531-39.972656-39.972657 0-22.074218 17.898437-39.972656 39.972656-39.972656 22.078125 0 39.976562 17.898438 39.976562 39.972656zm0 0"/><path d="m379.742188 189.261719v-19.984375c0-5.519532-4.472657-9.992188-9.992188-9.992188h-49.964844v39.972656h49.964844c5.519531 0 9.992188-4.476562 9.992188-9.996093zm0 0"/><path d="m379.742188 129.304688v-19.988282c0-5.519531-4.472657-9.992187-9.992188-9.992187h-49.964844v39.972656h49.964844c5.519531 0 9.992188-4.472656 9.992188-9.992187zm0 0"/><path d="m339.769531 259.214844c60.710938 0 109.925781-49.214844 109.925781-109.925782 0-60.710937-49.214843-109.925781-109.925781-109.925781-60.710937 0-109.925781 49.214844-109.925781 109.925781.074219 60.683594 49.246094 109.855469 109.925781 109.925782zm-59.957031-59.957032h19.984375v-99.933593h-19.984375v-19.988281h29.976562v-19.984376h19.988282v19.984376h9.992187v-19.984376h19.988281v19.984376h9.992188c16.554688 0 29.980469 13.425781 29.980469 29.980468v19.988282c-.023438 7.394531-2.804688 14.519531-7.792969 19.984374 4.988281 5.464844 7.769531 12.589844 7.792969 19.988282v19.984375c0 16.558593-13.425781 29.980469-29.980469 29.980469h-9.992188v19.988281h-19.988281v-19.988281h-9.992187v19.988281h-19.988282v-19.988281h-29.976562zm0 0"/><path d="m339.769531 299.1875c82.785157 0 149.898438-67.113281 149.898438-149.898438 0-82.785156-67.113281-149.898437-149.898438-149.898437-82.785156 0-149.898437 67.113281-149.898437 149.898437.09375 82.746094 67.152344 149.808594 149.898437 149.898438zm0-279.808594c71.75 0 129.914063 58.164063 129.914063 129.910156 0 71.75-58.164063 129.914063-129.914063 129.914063-71.746093 0-129.910156-58.164063-129.910156-129.914063.082031-71.714843 58.195313-129.828124 129.910156-129.910156zm0 0"/><path d="m121.578125 139.296875 36.894531 239.839844h315.128906c33.523438-.039063 62.320313-23.828125 68.691407-56.746094l35.207031-183.09375h-67.84375c-.179688 0-.332031-.085937-.507812-.101563.199218 3.359376.507812 6.6875.507812 10.09375 0 93.824219-76.0625 169.886719-169.886719 169.886719s-169.882812-76.0625-169.882812-169.886719c0-3.375.304687-6.664062.507812-9.992187zm0 0"/></svg>