<svg height="608pt" viewBox="-55 -19 608 608.00486" width="608pt" xmlns="http://www.w3.org/2000/svg"><path d="m237.585938 110v50h90v-120h-120v60h20c5.523437 0 10 4.476562 10 10zm0 0"/><path d="m137.585938 120h80v40h-80zm0 0"/><path d="m347.585938 80h100v80h-100zm0 0"/><path d="m458.914062 440 37.144532-260h-408.472656v-170c0-5.523438-4.476563-10-10-10h-80v20h70v471.410156c-18.867188 4.839844-31.484376 22.59375-29.859376 42.007813 1.632813 19.410156 17.03125 34.808593 36.441407 36.441406 19.414062 1.625 37.167969-10.992187 42.007812-29.859375h222.820313c5.035156 19.5 23.789062 32.222656 43.769531 29.683594 19.980469-2.539063 34.960937-19.542969 34.960937-39.683594s-14.980468-37.144531-34.960937-39.683594c-19.980469-2.539062-38.734375 10.183594-43.769531 29.683594h-222.820313c-3.632812-14.015625-14.578125-24.957031-28.589843-28.589844v-51.410156zm-41.328124-240h20v220h-20zm-60 0h20v220h-20zm-60 0h20v220h-20zm-60 0h20v220h-20zm-60 0h20v220h-20zm-60 0h20v220h-20zm0 0"/></svg>