<svg height="512pt" viewBox="0 0 512 512" width="512pt" xmlns="http://www.w3.org/2000/svg"><path d="m418.78125 334.609375c15.5625-11.691406 26.828125-27.667969 32.601562-46.230469l60.617188-179.453125h-41.859375l-56.707031 166.902344-.167969.519531c-6.601563 21.453125-26.550781 36.433594-48.519531 36.433594h-224.023438l-22.683594-251.527344c-1.480468-16.765625-9.132812-32.261718-21.542968-43.625-12.414063-11.367187-28.523438-17.628906-45.351563-17.628906h-51.144531v39.972656h51.144531c14.1875 0 25.828125 10.65625 27.078125 24.832032l31.28125 346.847656c.003906.0625.011719.125.019532.183594 3.019531 30.359374 25.640624 54.140624 54.65625 59.402343 8.125 23.488281 30.449218 40.40625 56.667968 40.40625 25.679688 0 47.632813-16.234375 56.15625-38.972656h45.574219c8.523437 22.738281 30.476563 38.972656 56.160156 38.972656 33.058594 0 59.957031-26.898437 59.957031-59.957031 0-33.0625-26.898437-59.960938-59.957031-59.960938-26.425781 0-48.898437 17.191407-56.859375 40.972657h-44.171875c-7.964843-23.78125-30.433593-40.972657-56.859375-40.972657-25.382812 0-47.113281 15.859376-55.847656 38.179688-8.511719-3.890625-14.679688-12.046875-15.695312-21.945312l-4.976563-55.207032h220.417969c19.546875 0 38.234375-6.273437 54.035156-18.144531zm-40.046875 97.089844c11.023437 0 19.988281 8.964843 19.988281 19.984375 0 11.023437-8.964844 19.988281-19.988281 19.988281-11.019531 0-19.984375-8.964844-19.984375-19.988281 0-11.019532 8.964844-19.984375 19.984375-19.984375zm-157.886719 0c11.019532 0 19.984375 8.964843 19.984375 19.984375 0 11.023437-8.964843 19.988281-19.984375 19.988281-11.023437 0-19.988281-8.964844-19.988281-19.988281 0-11.019532 8.964844-19.984375 19.988281-19.984375zm39.96875-161.886719h39.972656v-19.988281h15.988282c30.308594 0 54.964844-24.652344 54.964844-54.960938 0-18.445312-9.144532-34.785156-23.128907-44.757812 3.914063-7.554688 6.140625-16.117188 6.140625-25.191407 0-29.972656-24.117187-54.398437-53.964844-54.9375v-20.011718h-39.972656v19.988281h-49.964844v39.96875h19.988282v99.933594h-19.988282v39.96875h49.964844zm38.972656-159.890625c8.265626 0 14.992188 6.726563 14.992188 14.992187 0 8.265626-6.726562 14.988282-14.992188 14.988282h-28.976562v-29.980469zm-28.976562 69.953125h45.964844c8.265625 0 14.992187 6.722656 14.992187 14.988281s-6.726562 14.992188-14.992187 14.992188h-45.964844zm0 0"/></svg>