<svg height="512pt" viewBox="0 -11 512 512" width="512pt" xmlns="http://www.w3.org/2000/svg"><path d="m136 178h50v30h-50zm0 0"/><path d="m160 320c88.222656 0 160-71.773438 160-160s-71.777344-160-160-160-160 71.773438-160 160 71.777344 160 160 160zm-54-232h39v-30h30v30h21v60h20v90h-41v30h-30v-30h-39zm0 0"/><path d="m136 118h30v30h-30zm0 0"/><path d="m0 262.371094v27.628906h21.574219c-8.003907-8.515625-15.234375-17.757812-21.574219-27.628906zm0 0"/><path d="m160 350c-37.667969 0-72.808594-11.019531-102.371094-30h-57.628906v125c0 24.8125 20.1875 45 45 45h422c24.8125 0 45-20.1875 45-45v-125h-249.628906c-29.5625 18.980469-64.703125 30-102.371094 30zm0 0"/><path d="m467 150h-117.261719c.171875 3.3125.261719 6.644531.261719 10 0 20.957031-3.417969 41.132812-9.714844 60h171.714844v-25c0-24.8125-20.1875-45-45-45zm0 0"/><path d="m298.425781 290h213.574219v-40h-184.707031c-7.875 14.582031-17.605469 28.015625-28.867188 40zm0 0"/></svg>